<?xml version="1.0" encoding="utf-8"?>
<!-- Generator: Adobe Illustrator 24.0.1, SVG Export Plug-In . SVG Version: 6.00 Build 0)  -->
<svg version="1.1" id="Livello_1" xmlns="http://www.w3.org/2000/svg" xmlns:xlink="http://www.w3.org/1999/xlink" x="0px" y="0px"
	 viewBox="0 0 3000 599.2" style="enable-background:new 0 0 3000 599.2;" xml:space="preserve">
<g>
	<path d="M14.9,14.6h260.8c72.1,0,124.5,19,161.7,52.3c40.4,35.7,63.4,87.2,63.4,149.8c0,109.4-80.9,191.8-195,191.8H180.6v172.8
		H14.9V14.6z M180.6,280.2h89.6c40.4,0,65.8-27,65.8-65.8c0-38.1-24.6-62.6-67.4-62.6h-88V280.2z"/>
	<path d="M527,14.6h260.8c72.1,0,124.5,19,161.7,52.3c40.4,35.7,63.4,87.2,63.4,149.8c0,109.4-80.9,191.8-195,191.8H692.7v172.8H527
		V14.6z M692.7,280.2h89.6c40.4,0,65.8-27,65.8-65.8c0-38.1-24.6-62.6-67.4-62.6h-88V280.2z"/>
	<path d="M989.1,14.6h170.4l77.7,266.3c14.3,48.4,27.7,110.2,27.7,110.2h1.6c0,0,14.3-61.8,27.7-110.2l76.1-266.3h168.1
		l-182.3,566.8h-185.5L989.1,14.6z"/>
	<path d="M1552.7,14.6h215.6l87.2,317.1h1.6l87.2-317.1h217.2v566.8h-149.8V226.3h-1.6l-94.3,355.1h-121.3l-94.3-355.1h-1.6v355.1
		h-145.9V14.6z"/>
	<path d="M2213.8,14.6h165.7v566.8h-165.7V14.6z"/>
	<path d="M2409.6,300c0-169.6,111-295.7,287-295.7c176,0,288.5,126,288.5,295.7s-112.6,294.9-288.5,294.9
		C2520.6,594.9,2409.6,469.7,2409.6,300z M2817,300c0-92.7-40.4-163.3-119.7-163.3c-79.3,0-119.7,70.6-119.7,163.3
		s40.4,162.5,119.7,162.5C2776.6,462.5,2817,392.8,2817,300z"/>
</g>
</svg>
